<svg width="142" height="185" viewBox="0 0 142 185" fill="none" xmlns="http://www.w3.org/2000/svg">
<path d="M29.102 183.053L17.2339 62.2345H121.929L114.511 183.053H29.102Z" fill="#E0E3E7" stroke="black" stroke-width="3" stroke-linecap="round"/>
<path d="M125.199 62.3219C125.199 64.0182 124.069 65.9238 121.329 67.9028C118.624 69.8569 114.613 71.6789 109.522 73.2346C99.3584 76.3402 85.2263 78.2835 69.5515 78.2835C53.8768 78.2835 39.7447 76.3402 29.5808 73.2346C24.4896 71.6789 20.4787 69.8569 17.7738 67.9028C15.0343 65.9238 13.9045 64.0182 13.9045 62.3219C13.9045 60.6256 15.0343 58.72 17.7738 56.741C20.4787 54.7868 24.4896 52.9648 29.5808 51.4092C39.7447 48.3036 53.8768 46.3603 69.5515 46.3603C85.2263 46.3603 99.3584 48.3036 109.522 51.4092C114.613 52.9648 118.624 54.7868 121.329 56.741C124.069 58.72 125.199 60.6256 125.199 62.3219Z" fill="#7D7C89" stroke="black" stroke-width="3"/>
<path d="M18.7544 87.7206C-27.281 28.9861 31.4534 2 75.9012 2C115.587 2 169.559 28.9861 120.349 89.308" stroke="black" stroke-width="3" stroke-linecap="round"/>
</svg>
