<svg width="175" height="172" viewBox="0 0 175 172" fill="none" xmlns="http://www.w3.org/2000/svg">
<path d="M2.1608 85.9139C-0.0606384 113.148 21.1997 147.85 37.132 168.354C39.068 170.846 42.9353 168.889 42.3132 165.796C37.4591 141.659 33.7011 104.526 45.1206 85.9139C58.3234 64.3956 95.0736 76.2239 113.32 85.3852C114.316 85.8856 114.93 86.9104 114.93 88.0254V115.617C114.93 118.331 118.249 119.65 120.112 117.676L172.056 62.642C173.147 61.486 173.147 59.6796 172.056 58.5236L120.112 3.48984C118.249 1.51567 114.93 2.83437 114.93 5.54904V34.6825C114.93 36.8082 112.72 38.2368 110.735 37.4745C26.2361 5.01346 5.38966 46.3292 2.1608 85.9139Z" fill="#748DCD" stroke="black" stroke-width="4"/>
</svg>
