<svg width="175" height="172" viewBox="0 0 175 172" fill="none" xmlns="http://www.w3.org/2000/svg">
<path d="M172.839 85.9139C175.061 113.148 153.8 147.85 137.868 168.354C135.932 170.846 132.065 168.889 132.687 165.796C137.541 141.659 141.299 104.526 129.879 85.9139C116.677 64.3956 79.9264 76.2239 61.6805 85.3852C60.684 85.8856 60.0697 86.9104 60.0697 88.0254V115.617C60.0697 118.331 56.7514 119.65 54.8881 117.676L2.94361 62.642C1.8525 61.486 1.8525 59.6796 2.94361 58.5236L54.8881 3.48984C56.7514 1.51567 60.0697 2.83437 60.0697 5.54904V34.6825C60.0697 36.8082 62.2805 38.2368 64.2648 37.4745C148.764 5.01346 169.61 46.3292 172.839 85.9139Z" fill="#748DCD" stroke="black" stroke-width="4"/>
</svg>
